<svg aria-hidden="true" style="position: absolute; width: 0; height: 0; overflow: hidden;" version="1.1" xmlns="http://www.w3.org/2000/svg" xmlns:xlink="http://www.w3.org/1999/xlink">
<defs>
<svg id="icon-align-left" xmlns="http://www.w3.org/2000/svg" width="28" height="28" viewBox="0 0 28 28">
    <path d="M19.8333 11.6667H3.5"></path>
    <path d="M24.5 7H3.5"></path>
    <path d="M24.5 16.3333H3.5"></path>
    <path d="M19.8333 21H3.5"></path>
</svg>
<symbol id="icon-Bookshelf" viewBox="0 0 178 32">
<path d="M22.176 8.533c0-4.731-3.497-7.406-9.545-7.406h-12.631v29.417h13.33c6.089 0 9.998-2.921 9.998-8.599 0-4.402-2.633-6.665-5.719-7.2v-0.082c2.427-0.823 4.567-2.51 4.567-6.13zM4.896 13.305v-8.023h7.858c2.921 0 4.526 1.44 4.526 4.032s-1.317 3.991-4.814 3.991h-7.57zM4.896 16.967h8.599c3.086 0 4.937 1.687 4.937 4.69 0 2.757-1.275 4.731-5.472 4.731h-8.064v-9.422zM35.89 31.161c-6.583 0-10.574-4.567-10.574-11.109s3.991-11.109 10.574-11.109c6.583 0 10.574 4.567 10.574 11.109s-3.991 11.109-10.574 11.109zM35.89 27.623c4.114 0 6.254-3.25 6.254-7.57 0-4.361-2.139-7.57-6.254-7.57s-6.254 3.209-6.254 7.57c0 4.32 2.139 7.57 6.254 7.57zM58.912 31.161c-6.583 0-10.574-4.567-10.574-11.109s3.991-11.109 10.574-11.109c6.583 0 10.574 4.567 10.574 11.109s-3.991 11.109-10.574 11.109zM58.912 27.623c4.114 0 6.254-3.25 6.254-7.57 0-4.361-2.139-7.57-6.254-7.57s-6.254 3.209-6.254 7.57c0 4.32 2.139 7.57 6.254 7.57zM72.471 1.127v29.417h4.32v-7.611l2.921-2.757 6.624 10.368h5.184l-8.846-13.207 7.982-7.817h-5.307l-8.558 8.434v-16.827h-4.32zM101.934 17.831c-3.045-0.699-5.39-0.864-5.39-3.003 0-1.481 1.399-2.469 3.991-2.469 3.374 0 4.197 1.687 4.485 3.333h4.197c-0.288-3.662-3.003-6.747-8.722-6.747-5.266 0-8.311 2.757-8.311 6.213 0 4.773 4.526 5.431 7.858 6.213 3.086 0.741 5.595 0.946 5.595 3.579 0 1.317-1.275 2.798-4.279 2.798-4.443 0-5.431-1.934-5.637-4.197h-4.197c0.206 4.443 3.127 7.611 9.915 7.611 5.102 0 8.558-2.51 8.558-6.542 0-5.019-4.197-5.883-8.064-6.789zM124.123 8.944c-3.538 0-5.719 1.646-6.83 3.291h-0.082v-11.109h-4.32v29.417h4.32v-12.795c0-3.127 2.263-5.143 5.431-5.143 3.003 0 4.197 1.81 4.197 4.649v13.289h4.361v-14.523c0-4.814-3.086-7.077-7.077-7.077zM144.448 27.623c-3.826 0-6.089-2.921-6.089-6.459h16.128c0-7.488-3.333-12.219-10.121-12.219-6.336 0-10.327 4.279-10.327 11.109 0 6.583 3.991 11.109 10.533 11.109 5.39 0 8.517-3.045 9.586-7.035h-4.32c-0.37 1.275-1.81 3.497-5.39 3.497zM144.366 12.359c3.497 0 5.801 2.345 5.801 5.595h-11.808c0-3.25 2.51-5.595 6.007-5.595zM157.531 1.127v29.417h4.361v-29.417h-4.361zM176.002 4.665v-3.538c-0.864-0.179-1.858-0.284-2.877-0.288h-0.003c-3.456 0-5.349 1.563-5.349 6.007v2.674h-3.003v3.538h3.003v17.486h4.361v-17.486h3.867v-3.538h-3.865v-2.304c0-2.386 1.070-2.674 3.867-2.551z"></path>
</symbol>
<symbol id="icon-logo" viewBox="0 0 32 32">
<path fill="#f6f6f6" style="fill: var(--color1, #f6f6f6)" d="M0 0l16.343 16.172 15.657 15.828v-32h-32z"></path>
<path fill="#f6f6f6" style="fill: var(--color1, #f6f6f6)" d="M4.457 4.228l11.943 11.829 11.257 11.485h-23.2v-23.315z"></path>
<path fill="#4f2ee8" style="fill: var(--color2, #4f2ee8)" d="M27.733 27.619l-11.944-11.829-11.256-11.485h23.2v23.315z"></path>
<path fill="#4f2ee8" style="fill: var(--color2, #4f2ee8)" d="M9.257 9.028l13.6 13.601h-13.6v-13.6z"></path>
<path fill="#f6f6f6" style="fill: var(--color1, #f6f6f6)" d="M9.257 9.028l13.6 13.601v-13.6h-13.6z"></path>
</symbol>
<symbol id="icon-uil_cart" viewBox="0 0 32 32">
<path d="M25.333 9.333h-4v-1.333c0-2.945-2.388-5.333-5.333-5.333s-5.333 2.388-5.333 5.333v0 1.333h-4c-0 0-0.001 0-0.002 0-0.736 0-1.333 0.597-1.333 1.333 0 0.001 0 0.001 0 0.002v-0 14.666c0 2.209 1.791 4 4 4v0h13.334c2.209 0 4-1.791 4-4v0-14.666c0-0 0-0.001 0-0.002 0-0.736-0.597-1.333-1.333-1.333-0.001 0-0.001 0-0.002 0h0zM13.333 8c0-1.473 1.194-2.667 2.667-2.667s2.667 1.194 2.667 2.667v1.333h-5.334v-1.333zM24 25.333c0 0 0 0.001 0 0.002 0 0.736-0.597 1.333-1.333 1.333h-13.334c-0.736 0-1.333-0.597-1.333-1.333 0-0.001 0-0.001 0-0.002v0-13.333h2.667v1.333c0 0.736 0.597 1.333 1.333 1.333s1.333-0.597 1.333-1.333v0-1.333h5.334v1.333c0.036 0.708 0.619 1.269 1.333 1.269s1.297-0.561 1.333-1.266l0-0.003v-1.333h2.667v13.333z"></path>
</symbol>
<symbol id="icon-x-close" viewBox="0 0 32 32">
<path d="M21 7L7 21M7 7L21 21" stroke="#111111" stroke-width="3" stroke-linecap="round" stroke-linejoin="round"></path>
</symbol>
<symbol id="icon-trident" viewBox="0 0 20 32">
<path d="M9.00548 30.8877C7.26703 29.6252 6.0141 27.7313 5.59123 25.5369H0V2.41992C2.99139 3.86285 5.1527 7.01926 5.38763 10.2959L6.23336 16.7891L5.82615 16.744C4.93344 16.744 4.15035 17.5557 4.15035 18.3523C4.15035 19.1038 4.7455 19.7351 5.52858 19.9004L6.54659 20.1259C8.2224 17.0747 9.17776 14.0836 9.17776 11.1527C9.17776 8.50728 8.81754 5.86191 8.75489 3.15641C8.75489 1.95397 9.24041 0.85674 10.0078 0C10.7909 0.85674 11.2608 1.95397 11.2608 3.15641C11.2608 5.86191 10.8379 8.50728 10.8379 11.1527C10.8379 14.0836 11.7933 17.0747 13.4691 20.1259L14.4871 19.9004C15.2702 19.7351 15.8653 19.0888 15.8653 18.3523C15.8653 17.5406 15.0822 16.744 14.1895 16.744L13.7666 16.8041L14.6124 10.3109C15.0352 7.03429 17.0086 3.86285 20 2.43495V25.5519H14.4244C14.0016 27.7313 12.8113 29.7003 11.0102 30.9028C10.5873 31.1884 10.2271 31.5341 9.99217 32C9.77291 31.5341 9.41269 31.1884 9.00548 30.8877ZM2.64683 17.5557C2.88175 16.6989 3.53955 15.9474 4.38528 15.4814L3.72749 10.1306C3.49256 8.46219 2.77212 6.97417 1.69146 5.75669V17.5406H2.64683V17.5557ZM5.46593 23.9286C5.46593 23.117 5.59123 22.3805 5.76351 21.6289L4.98042 21.4486C3.83712 21.1029 2.9444 20.2461 2.64683 19.1489H1.69146V23.9286H5.46593ZM9.17776 23.9286C9.17776 22.9516 8.39467 22.0949 7.37666 21.9746C7.20438 22.6059 7.07909 23.2372 7.07909 23.9286H9.17776ZM9.17776 25.5519H7.31402C7.61159 26.8145 8.26938 27.9718 9.17776 28.9488V25.5519ZM11.8089 20.5467C11.0885 19.2842 10.4307 17.9615 10.0078 16.5787C9.58496 17.9615 8.92717 19.2842 8.20673 20.5467C8.92717 20.7121 9.52232 21.178 10.0078 21.7041C10.4933 21.178 11.0885 20.7121 11.8089 20.5467ZM12.9522 23.9286C12.9522 23.2372 12.8269 22.6059 12.6547 21.9746C11.6366 22.0949 10.8536 22.9516 10.8536 23.9286H12.9522ZM12.7173 25.5519H10.8536V28.9488C11.7619 27.9568 12.4197 26.8145 12.7173 25.5519ZM18.3399 23.9286V19.1489H17.3845C17.0869 20.2461 16.1785 21.1029 15.0509 21.4486L14.2678 21.6289C14.4401 22.3805 14.5654 23.117 14.5654 23.9286H18.3399ZM18.3399 17.5557V5.75669C17.2592 6.95914 16.4761 8.46219 16.3038 10.1306L15.646 15.4814C16.4918 15.9474 17.1496 16.6839 17.3845 17.5557H18.3399Z" fill="white"></path>
</symbol>
<symbol id="trash-basket" viewBox="0 0 32 32">
<path d="M6.75 2.25H11.25M2.25 4.5H15.75M14.25 4.5L13.724 12.3895C13.6451 13.5732 13.6057 14.165 13.35 14.6138C13.1249 15.0088 12.7854 15.3265 12.3762 15.5248C11.9115 15.75 11.3183 15.75 10.132 15.75H7.86799C6.68168 15.75 6.08852 15.75 5.62375 15.5248C5.21457 15.3265 4.87507 15.0088 4.64999 14.6138C4.39433 14.165 4.35488 13.5732 4.27596 12.3895L3.75 4.5M7.5 7.875V11.625M10.5 7.875V11.625" stroke="white" stroke-width="1.5" stroke-linecap="round" stroke-linejoin="round"></path>
</symbol>
<symbol id="scroll-down" viewBox="0 0 32 32">
<path d="M10.3491 12.2835C10.4344 12.3694 10.5357 12.4376 10.6475 12.4841C10.7592 12.5306 10.879 12.5546 11 12.5546C11.121 12.5546 11.2408 12.5306 11.3525 12.4841C11.4642 12.4376 11.5656 12.3694 11.6508 12.2835L15.8492 8.07596C15.9344 7.99004 16.0358 7.92184 16.1475 7.87531C16.2592 7.82877 16.379 7.80481 16.5 7.80481C16.621 7.80481 16.7408 7.82877 16.8525 7.87531C16.9642 7.92184 17.0656 7.99004 17.1508 8.07596C17.3216 8.2477 17.4174 8.48004 17.4174 8.72221C17.4174 8.96438 17.3216 9.19671 17.1508 9.36846L12.9433 13.576C12.4277 14.0909 11.7287 14.3802 11 14.3802C10.2712 14.3802 9.57227 14.0909 9.05664 13.576L4.84914 9.36846C4.67979 9.19772 4.58432 8.96727 4.5833 8.72679C4.58261 8.60615 4.60573 8.48656 4.65135 8.37487C4.69697 8.26319 4.76418 8.16161 4.84914 8.07596C4.93435 7.99004 5.03574 7.92184 5.14744 7.87531C5.25915 7.82877 5.37896 7.80481 5.49997 7.80481C5.62098 7.80481 5.7408 7.82877 5.8525 7.87531C5.96421 7.92184 6.06559 7.99004 6.15081 8.07596L10.3491 12.2835Z" fill="#4F2EE8"></path>
</symbol>
<symbol id="scroll-up" viewBox="0 0 32 32">
<path d="M3.37495 14.7L11.775 6.275C11.875 6.175 11.9833 6.10433 12.0999 6.063C12.2166 6.021 12.3416 6 12.4749 6C12.6083 6 12.7333 6.021 12.8499 6.063C12.9666 6.10433 13.075 6.175 13.175 6.275L21.6 14.7C21.8333 14.9333 21.95 15.225 21.95 15.575C21.95 15.925 21.825 16.225 21.575 16.475C21.325 16.725 21.0333 16.85 20.7 16.85C20.3666 16.85 20.075 16.725 19.825 16.475L12.4749 9.125L5.12495 16.475C4.89161 16.7083 4.60428 16.825 4.26295 16.825C3.92095 16.825 3.62495 16.7 3.37495 16.45C3.12495 16.2 2.99995 15.9083 2.99995 15.575C2.99995 15.2417 3.12495 14.95 3.37495 14.7Z" fill="white"></path>
</symbol>
<symbol id="icon-arrow-narrow-right" viewBox="0 0 32 32">
<path fill="none" stroke="#eac645" style="stroke: var(--color1, #eac645)" stroke-linejoin="round" stroke-linecap="round" stroke-miterlimit="4" stroke-width="3.2" d="M5.334 16h21.333M26.667 16l-8-8M26.667 16l-8 8"></path>
</symbol>
<symbol id="avatar-triangle" viewBox="0 0 23 26">
<path d="M4.7915 9.75H18.2082L12.1774 16.5674C11.9977 16.7705 11.754 16.8846 11.4998 16.8846C11.2457 16.8846 11.002 16.7705 10.8223 16.5674L4.7915 9.75Z" fill="white"></path>
</symbol>
</defs>
</svg>
